<?xml version="1.0" encoding="utf-8"?>
<!-- Generator: Adobe Illustrator 19.2.1, SVG Export Plug-In . SVG Version: 6.00 Build 0)  -->
<svg version="1.1" id="Layer_1" xmlns="http://www.w3.org/2000/svg" xmlns:xlink="http://www.w3.org/1999/xlink" x="0px" y="0px"
	 viewBox="0 0 118.2 91.7" style="enable-background:new 0 0 118.2 91.7;" xml:space="preserve">
<path d="M111.8,23C85.4,54.8,84.2,68.6,84.2,68.6c-0.9,6.7,3.8,9.1,3.8,9.1l1.1,0.3c0.7,0.1,0.7,0.7,0.7,0.7
	c0.1,0.3-0.7,0.6-0.7,0.6c-12,0.2-12.5-12-12.5-12C76.1,64.2,78,58,78,58c0.7-2.1,1.6-4.4,3-7.2c4.6-9.3,17.4-26.6,17.4-26.6
	l-0.2-0.1C74.2,51.5,67.1,61.4,67.1,61.4c-6.5,9.8-8.9,15.6-8.9,15.6c-0.7,1.1,0.1,2.2,0.1,2.2c0.3,0.5,0,0.9,0,0.9
	c-0.2,0.6-1.5,0.1-1.5,0.1c-5.9-3.2-5.9-8.7-5.9-8.7c-0.5-2.1,3-8.7,3-8.7c13.3-25.1,25.4-41.7,25.4-41.7L79,21
	C45.4,56.5,39.4,65.1,39.4,65.1c-7.6,10.7-7.3,14.6-7.3,14.6c0,0.8,0.6,2.1,0.6,2.1c0.3,0.7-0.5,1.3-0.5,1.3
	c-0.7,0.6-1.7-0.3-1.7-0.3c-5.6-5.4-5.6-8.9-5.6-8.9c-1.6-2.4,5.9-13.6,5.9-13.6c21.8-30.7,24.1-34.4,24.1-34.4
	c6.3-9,6.5-11.5,6.5-11.5c0.3-0.7-0.3-0.5-0.3-0.5C46.4,19.3,33.1,30,33.1,30C18.2,41.5,13.7,47.5,13.7,47.5
	c-0.1,0.5,2.1,0.6,2.1,0.6c0.9-0.1,0.9,0.7,0.9,0.7c0.2,0.3-0.6,0.7-0.6,0.7c-4.4,2.1-7.2-0.6-7.2-0.6c-3.9-3.3-5.1-6.8-5.1-6.8
	c-0.6-0.6,1.1-1.9,1.1-1.9c7.4-5.9,16.5-12.3,16.5-12.3c6.7-5,14.6-9.6,20.9-12.7c10.4-5,15.2-5.7,15.2-5.7C60.6,9,63,11.2,63,11.2
	l2.2,2.1c2.4,2.3,1.5,6.5,1.5,6.5c-1.4,8.2-10.3,20.1-10.3,20.1c-5.5,7.4-6.8,8.8-6.8,8.8l0.2,0.3l23.7-27.1l7.8-8.9
	c1.1-1.6,2.5-1.6,2.5-1.6c0.8-0.2,2.4,1.1,2.4,1.1c3.8,3.3,5,4.6,5,4.6c1.7,1.6,0.1,4,0.1,4L70.8,51.9l0.2,0.2
	c23.1-28.7,30.8-36.5,30.8-36.5c1.5-2.7,3.3-1.8,3.3-1.8c3.6,2.3,6.7,5.5,6.7,5.5C114.1,20.6,111.8,23,111.8,23z"/>
</svg>
