<?xml version="1.0" encoding="utf-8"?>
<!-- Generator: Adobe Illustrator 19.2.1, SVG Export Plug-In . SVG Version: 6.00 Build 0)  -->
<svg version="1.1" id="Layer_1" xmlns="http://www.w3.org/2000/svg" xmlns:xlink="http://www.w3.org/1999/xlink" x="0px" y="0px"
	 viewBox="0 0 274 93.9" style="enable-background:new 0 0 274 93.9;" xml:space="preserve">
<path d="M115.8,24C89.4,55.8,88.2,69.6,88.2,69.6c-0.9,6.7,3.8,9.1,3.8,9.1l1.1,0.3c0.7,0.1,0.7,0.7,0.7,0.7
	c0.1,0.3-0.7,0.6-0.7,0.6c-12,0.2-12.5-12-12.5-12C80.1,65.1,82,59,82,59c0.7-2.1,1.6-4.4,3-7.2c4.6-9.3,17.4-26.6,17.4-26.6
	l-0.2-0.1C78.2,52.5,71.1,62.4,71.1,62.4C64.6,72.2,62.2,78,62.2,78c-0.7,1.1,0.1,2.2,0.1,2.2c0.3,0.5,0,0.9,0,0.9
	c-0.2,0.6-1.5,0.1-1.5,0.1c-5.9-3.2-5.9-8.7-5.9-8.7c-0.5-2.1,3-8.7,3-8.7c13.3-25.1,25.4-41.7,25.4-41.7L83,21.9
	C49.4,57.5,43.4,66.1,43.4,66.1c-7.6,10.7-7.3,14.6-7.3,14.6c0,0.8,0.6,2.1,0.6,2.1c0.3,0.7-0.5,1.3-0.5,1.3
	c-0.7,0.6-1.7-0.3-1.7-0.3c-5.6-5.4-5.6-8.9-5.6-8.9c-1.6-2.4,5.9-13.6,5.9-13.6c21.8-30.7,24.1-34.4,24.1-34.4
	c6.3-9,6.5-11.5,6.5-11.5c0.3-0.7-0.3-0.5-0.3-0.5c-14.6,5.5-27.9,16.2-27.9,16.2C22.2,42.5,17.7,48.5,17.7,48.5
	c-0.1,0.5,2.1,0.6,2.1,0.6c0.9-0.1,0.9,0.7,0.9,0.7c0.2,0.3-0.6,0.7-0.6,0.7c-4.4,2.1-7.2-0.6-7.2-0.6C9.1,46.6,7.8,43,7.8,43
	c-0.6-0.6,1.1-1.9,1.1-1.9c7.4-5.9,16.5-12.3,16.5-12.3c6.7-5,14.6-9.6,20.9-12.7c10.4-5,15.2-5.7,15.2-5.7c3.1-0.5,5.5,1.7,5.5,1.7
	l2.2,2.1c2.4,2.3,1.5,6.5,1.5,6.5c-1.4,8.2-10.3,20.1-10.3,20.1c-5.5,7.4-6.8,8.8-6.8,8.8l0.2,0.3l23.7-27.1l7.8-8.9
	c1.1-1.6,2.5-1.6,2.5-1.6c0.8-0.2,2.4,1.1,2.4,1.1c3.8,3.3,5,4.6,5,4.6c1.7,1.6,0.1,4,0.1,4L74.8,52.8l0.2,0.2
	c23.1-28.7,30.8-36.5,30.8-36.5c1.5-2.7,3.3-1.8,3.3-1.8c3.6,2.3,6.7,5.5,6.7,5.5C118.1,21.6,115.8,24,115.8,24z"/>
<path d="M140.4,56.8c0,0-4.2,5.2-14.6,21c0,0-1.1,1.7-3.1,1.6c-0.8,0-1.5-0.2-2.1-0.6c0,0-0.7-0.3-1.4-1c-2.8-2.8-3-6.4-3-6.4
	c-0.2-3.9,1.8-8.1,1.8-8.1c1.3-3.1,3.6-7,3.6-7h-0.2c-4.6,6.2-7.9,10.9-7.9,10.9c-3.3,4.6-4.4,6.6-4.4,6.6l-1.4,2.4
	c-0.7,1.6-1.7,1.9-1.7,1.9c-1,0.2-2.1-0.5-2.1-0.5c-4.2-3.1-5.6-5.1-5.6-5.1c-1.5-1.7-1.5-4.2-1.5-4.2c-0.8-9.6,8.5-20.5,8.5-20.5
	c6.7-8,16.5-12.4,16.5-12.4c0.1-0.1,0.3-0.2,0.3-0.2c0.2-0.5,0.6-0.5,0.6-0.5c0.2-0.1,0.7,0.1,0.7,0.1c4.2,2.1,6.8,8.5,6.8,8.5
	c0.3,1.1,0.2,1.8,0.2,1.8c0,0.5-0.2,0.6-0.2,0.6c-0.5,0.1-0.8-0.5-0.8-0.5l-1.3-1.6c0,0-0.2-0.5-0.6-0.5c-0.5,0-0.8,0.1-0.8,0.1
	c-8.1,3-14,8.9-14,8.9C102.5,61.5,102.8,73,102.8,73c0.1,0.2,0.3,0,0.3,0c15.2-16.4,18.7-20.3,18.7-20.3l4.7-5c1-1,2.2,0,2.2,0
	c1.1,0.9,2.2,1.7,2.2,1.7c0.8,0.7,1.6,1.3,1.7,1.4c2.4,1.6,0.8,3.4,0.8,3.4c-1,1.4-5.7,8.7-5.7,8.7c-1.8,3-5,8.8-5.5,10.3
	c-0.1,0.6,0.1,0.5,0.1,0.5s1.8-1,8.7-8.5c2.1-2.2,7.9-8.9,8.4-9.6c0,0,0.6-0.7,1.1,0C140.5,55.5,141.1,55.9,140.4,56.8z"/>
<path d="M168.5,77.2c-1.9,2.3-3.5,2.1-3.5,2.1c-1.3,0-3.5-1.9-3.5-1.9l-2.6-1.8c-2.6-1.9-2.5-5.4-2.5-5.4c-0.1-3.2,2.4-7.9,2.4-7.9
	c2.3-4.7,7-12.1,7-12.1l-0.2-0.2c-17.7,18.2-22.1,23.9-22.1,23.9c-2.7,3.5-2.7,4.1-2.7,4.1c-0.2,0.3-0.2,0.9-0.2,0.9
	c0,0.7-0.6,0.7-0.6,0.7c-0.8,0-1.4-0.7-1.4-0.7c-1.8-1.8-2.3-3.1-2.3-3.1c-1.3-2.7,0.5-5.9,0.5-5.9c9.5-16.9,13-23.1,13-23.1
	l-0.1-0.1l-5.7,6.4c-6,6.8-6.5,7.9-6.5,7.9c-0.8,0.7-1.4,0.1-1.4,0.1c-0.7-0.7-0.1-1.5-0.1-1.5c9.8-12.2,12.3-15.4,18.4-22.5
	c0.6-0.9,1.5-0.3,1.5-0.3c1.3,0.8,3.3,2.1,3.3,2.1c1.9,1.3,2.6,2.3,2.6,2.3c1.4,1.3,0.3,3.2,0.3,3.2c-7.2,11.7-8.8,13.9-8.8,13.9
	c0.1,0.5,0.5,0.2,0.5,0.2c8.7-8.2,14.5-15.2,14.5-15.2l4.6-5.1c1-1.6,1.8-1.6,1.8-1.6c0.6-0.2,1.6,0.7,1.6,0.7
	c3.9,3.3,4.8,4.8,4.8,4.8c1.3,1,0,2.9,0,2.9c-16.8,20.2-18.6,29.1-18.6,29.1c0,0.5,0.7,0.1,0.7,0.1c4,0.1,21.5-21.8,21.5-21.8
	c0.5-0.9,1-0.5,1-0.5c1,0.1,0.5,1.1,0.5,1.1C172.2,73,168.5,77.2,168.5,77.2z"/>
<path d="M211.4,40.2c-5.6,1.6-8.9,1.6-8.9,1.6c-17,20.5-17.7,30.4-17.7,30.4c-0.1,1.7,0.8,2.6,0.8,2.6c0.6,0.2,1.7-0.3,1.7-0.3
	c5.5-3,14.1-12.8,14.1-12.8l10.3-11.9c0.5-0.5,0.9-0.1,0.9-0.1c0.5,0.2-0.1,0.9-0.1,0.9c-8.1,11.5-12.4,18.5-12.4,18.5
	c-5.2,7.8-7.6,9.1-7.6,9.1c-1.6,1.1-3.1,1-3.1,1c-0.7,0.1-3-0.8-3-0.8c-1.7-0.7-3.6-2.4-3.6-2.4c-1.3-1.1-2.5-2.6-3.3-4.6
	c-1.3-1.9-0.8-6.2-0.8-6.2c0.3-2.5,1.4-5.7,3.5-9.8c2.6-4.9,8.3-13.2,8.3-13.2l0.1-0.1c-4-0.1-6.5-1.3-6.5-1.3
	c-0.5-0.1-0.3-0.7-0.3-0.7c-0.1-0.2,0.9-0.5,0.9-0.5c1.9-0.7,8.4-1.3,8.4-1.3c7.6-10.9,8.8-13,8.8-13c1.8-2.7,1.7-4.6,1.7-4.6
	c0-0.2-0.1-0.3-0.1-0.3c-0.1-0.5,0.5-0.6,0.5-0.6c0.3,0,1.4,0.5,1.4,0.5c5.4,2.4,6.4,6.8,6.4,6.8c0.5,2.7-1.9,5.6-1.9,5.6l-4,4.9
	c4.3,0.1,5.5,0.3,5.5,0.3c1.4,0.1,1.4,0.7,1.4,0.7C213,39.7,211.4,40.2,211.4,40.2z"/>
<path d="M239.1,24.3l-6.3,8.9l-7.2,10.1c-3.2,4.4-6,9.1-6,9.1c-2.1,3.1-3.9,6.4-4.8,8.1c-2.3,4.3-3.2,8.3-3.2,8.3
	c-0.5,2.1-0.3,4.1,0.6,5.5c3.2,0.6,15.6-13.8,15.6-13.8l7.3-8.4c0.3-0.7,0.9-0.1,0.9-0.1c0.3,0.2,0,0.8,0,0.8
	c-13.5,20.6-16.4,23.6-16.4,23.6c-1.9,2.7-5,2.5-5,2.5c-1.3,0.2-3.9-1.5-3.9-1.5l-3.3-2.1c-2.6-2.1-2.8-6.7-2.8-6.7
	c-0.5-4.6,2.2-10.4,2.2-10.4c2.2-4.2,5.4-9.6,5.4-9.6c2.1-3.8,4.9-8.1,7.6-12.1c3-4.4,5.7-9,5.7-9c2.1-3.2,4-6.4,4.9-8.2
	c1.1-1.7,1.5-4.4,1.5-4.4c0.1-0.9,0.2-1.9,0.1-3.1c-0.3-0.7,0.1-1.1,0.1-1.1c0.3-0.6,0.9-0.5,0.9-0.5c2.9,0.5,5.8,4.9,5.8,4.9
	c2.2,3.3,1.7,6,1.7,6C240.4,22.9,239.1,24.3,239.1,24.3z"/>
<path d="M253.8,70.1c-3.1,3.6-6.2,6.8-8.3,8.4c-1.3,0.9-3.1,0.9-3.1,0.9c-3.5-0.2-6.6-2.6-6.6-2.6c-2.9-2.1-4.1-3.4-4.1-3.4
	c-2.7-2.3-2.6-6.4-2.6-6.4c-0.2-6.4,3.9-13.1,3.9-13.1c1.3-2.2,7.3-12.7,20.3-17.8c0.3-0.1,1.1,0.5,1.1,0.5c3.9,2.6,5.8,6.8,5.8,6.8
	c0.2,0.2,0.3,0.5,0.3,0.5c0.3,0.1,0.7,0.7,0.7,0.7c0.8,0.8,0.2,2.4,0.2,2.4c-1.3,3.3-4.7,6.7-4.7,6.7c-5.7,6.3-9.9,5.8-9.9,5.8
	c-2.3-0.3-5-3.5-5-3.5c-2.3,2.7-4.1,6.5-4.1,6.5c-0.7,1.4-1.3,2.9-1.7,4.4c-0.2,0.9-0.5,1.9-0.6,3c-0.2,5.2,2.7,5.6,2.7,5.6
	c2.4,0.2,7.4-3.5,7.4-3.5c4.6-3.6,9.6-8.3,9.6-8.3c2.2-1.8,6.3-7,9-9.9c0.8-0.9,1.4-0.7,1.4-0.7s0.7,0.2,0,1.4
	C265.1,55,259.5,63.2,253.8,70.1z M242.5,55.2c0,0,1.7,2.1,6.2-0.7c0,0,4.1-2.7,8-9.1C256.7,45.4,247.3,48.3,242.5,55.2z"/>
</svg>
