<?xml version="1.0" encoding="utf-8"?>
<!-- Generator: Adobe Illustrator 19.2.1, SVG Export Plug-In . SVG Version: 6.00 Build 0)  -->
<svg version="1.1" id="Layer_1" xmlns="http://www.w3.org/2000/svg" xmlns:xlink="http://www.w3.org/1999/xlink" x="0px" y="0px"
	 viewBox="0 0 278.1 99.7" style="enable-background:new 0 0 278.1 99.7;" xml:space="preserve">
<style type="text/css">
	.st0{fill:#FFFFFF;}
</style>
<path class="st0" d="M116.7,27.2C90.4,59,89.1,72.8,89.1,72.8c-0.9,6.7,3.8,9.1,3.8,9.1l1.1,0.3c0.7,0.1,0.7,0.7,0.7,0.7
	c0.1,0.3-0.7,0.6-0.7,0.6c-12,0.2-12.5-12-12.5-12c-0.5-3.2,1.5-9.3,1.5-9.3c0.7-2.1,1.6-4.4,3-7.2c4.6-9.3,17.4-26.6,17.4-26.6
	l-0.2-0.1C79.2,55.7,72,65.6,72,65.6c-6.5,9.8-8.9,15.6-8.9,15.6c-0.7,1.1,0.1,2.2,0.1,2.2c0.3,0.5,0,0.9,0,0.9
	c-0.2,0.6-1.5,0.1-1.5,0.1c-5.9-3.2-5.9-8.7-5.9-8.7c-0.5-2.1,3-8.7,3-8.7C72.2,42,84.2,25.4,84.2,25.4L84,25.2
	C50.4,60.7,44.3,69.3,44.3,69.3C36.7,80,37,83.9,37,83.9c0,0.8,0.6,2.1,0.6,2.1c0.3,0.7-0.5,1.3-0.5,1.3c-0.7,0.6-1.7-0.3-1.7-0.3
	c-5.6-5.4-5.6-8.9-5.6-8.9c-1.6-2.4,5.9-13.6,5.9-13.6c21.8-30.7,24.1-34.4,24.1-34.4c6.3-9,6.5-11.5,6.5-11.5
	C66.7,17.7,66,18,66,18c-14.6,5.5-27.9,16.2-27.9,16.2C23.1,45.7,18.7,51.7,18.7,51.7c-0.1,0.5,2.1,0.6,2.1,0.6
	c0.9-0.1,0.9,0.7,0.9,0.7c0.2,0.3-0.6,0.7-0.6,0.7c-4.4,2.1-7.2-0.6-7.2-0.6c-3.9-3.3-5.1-6.8-5.1-6.8c-0.6-0.6,1.1-1.9,1.1-1.9
	C17.3,38.4,26.4,32,26.4,32c6.7-5,14.6-9.6,20.9-12.7c10.4-5,15.2-5.7,15.2-5.7c3.1-0.5,5.5,1.7,5.5,1.7l2.2,2.1
	c2.4,2.3,1.5,6.5,1.5,6.5C70.2,32.1,61.3,44,61.3,44c-5.5,7.4-6.8,8.8-6.8,8.8l0.2,0.3L78.4,26l7.8-8.9c1.1-1.6,2.5-1.6,2.5-1.6
	c0.8-0.2,2.4,1.1,2.4,1.1c3.8,3.3,5,4.6,5,4.6c1.7,1.6,0.1,4,0.1,4L75.8,56l0.2,0.2c23.1-28.7,30.8-36.5,30.8-36.5
	c1.5-2.7,3.3-1.8,3.3-1.8c3.6,2.3,6.7,5.5,6.7,5.5C119.1,24.8,116.7,27.2,116.7,27.2z"/>
<path class="st0" d="M141.4,60c0,0-4.2,5.2-14.6,21c0,0-1.1,1.7-3.1,1.6c-0.8,0-1.5-0.2-2.1-0.6c0,0-0.7-0.3-1.4-1
	c-2.8-2.8-3-6.4-3-6.4c-0.2-3.9,1.8-8.1,1.8-8.1c1.3-3.1,3.6-7,3.6-7h-0.2c-4.6,6.2-7.9,10.9-7.9,10.9c-3.3,4.6-4.4,6.6-4.4,6.6
	l-1.4,2.4c-0.7,1.6-1.7,1.9-1.7,1.9c-1,0.2-2.1-0.5-2.1-0.5c-4.2-3.1-5.6-5.1-5.6-5.1C98,74.2,98,71.7,98,71.7
	c-0.8-9.6,8.5-20.5,8.5-20.5c6.7-8,16.5-12.4,16.5-12.4c0.1-0.1,0.3-0.2,0.3-0.2C123.7,38,124,38,124,38c0.2-0.1,0.7,0.1,0.7,0.1
	c4.2,2.1,6.8,8.5,6.8,8.5c0.3,1.1,0.2,1.8,0.2,1.8c0,0.5-0.2,0.6-0.2,0.6c-0.5,0.1-0.8-0.5-0.8-0.5l-1.3-1.6c0,0-0.2-0.5-0.6-0.5
	c-0.5,0-0.8,0.1-0.8,0.1c-8.1,3-14,8.9-14,8.9c-10.6,9.1-10.4,20.6-10.4,20.6c0.1,0.2,0.3,0,0.3,0c15.2-16.4,18.7-20.3,18.7-20.3
	l4.7-5c1-1,2.2,0,2.2,0c1.1,0.9,2.2,1.7,2.2,1.7c0.8,0.7,1.6,1.3,1.7,1.4c2.4,1.6,0.8,3.4,0.8,3.4c-1,1.4-5.7,8.7-5.7,8.7
	c-1.8,3-5,8.8-5.5,10.3c-0.1,0.6,0.1,0.5,0.1,0.5s1.8-1,8.7-8.5c2.1-2.2,7.9-8.9,8.4-9.6c0,0,0.6-0.7,1.1,0
	C141.5,58.7,142,59.1,141.4,60z"/>
<path class="st0" d="M169.5,80.4c-1.9,2.3-3.5,2.1-3.5,2.1c-1.3,0-3.5-1.9-3.5-1.9l-2.6-1.8c-2.6-1.9-2.5-5.4-2.5-5.4
	c-0.1-3.2,2.4-7.9,2.4-7.9c2.3-4.7,7-12.1,7-12.1l-0.2-0.2c-17.7,18.2-22.1,23.9-22.1,23.9c-2.7,3.5-2.7,4.1-2.7,4.1
	c-0.2,0.3-0.2,0.9-0.2,0.9c0,0.7-0.6,0.7-0.6,0.7c-0.8,0-1.4-0.7-1.4-0.7c-1.8-1.8-2.3-3.1-2.3-3.1c-1.3-2.7,0.5-5.9,0.5-5.9
	c9.5-16.9,13-23.1,13-23.1l-0.1-0.1l-5.7,6.4c-6,6.8-6.5,7.9-6.5,7.9c-0.8,0.7-1.4,0.1-1.4,0.1c-0.7-0.7-0.1-1.5-0.1-1.5
	c9.8-12.2,12.3-15.4,18.4-22.5c0.6-0.9,1.5-0.3,1.5-0.3c1.3,0.8,3.3,2.1,3.3,2.1c1.9,1.3,2.6,2.3,2.6,2.3c1.4,1.3,0.3,3.2,0.3,3.2
	c-7.2,11.7-8.8,13.9-8.8,13.9c0.1,0.5,0.5,0.2,0.5,0.2c8.7-8.2,14.5-15.2,14.5-15.2l4.6-5.1c1-1.6,1.8-1.6,1.8-1.6
	c0.6-0.2,1.6,0.7,1.6,0.7c3.9,3.3,4.8,4.8,4.8,4.8c1.3,1,0,2.9,0,2.9c-16.8,20.2-18.6,29.1-18.6,29.1c0,0.5,0.7,0.1,0.7,0.1
	c4,0.1,21.5-21.8,21.5-21.8c0.5-0.9,1-0.5,1-0.5c1,0.1,0.5,1.1,0.5,1.1C173.2,76.2,169.5,80.4,169.5,80.4z"/>
<path class="st0" d="M212.4,43.4c-5.6,1.6-8.9,1.6-8.9,1.6c-17,20.5-17.7,30.4-17.7,30.4c-0.1,1.7,0.8,2.6,0.8,2.6
	c0.6,0.2,1.7-0.3,1.7-0.3c5.5-3,14.1-12.8,14.1-12.8l10.3-11.9c0.5-0.5,0.9-0.1,0.9-0.1c0.5,0.2-0.1,0.9-0.1,0.9
	c-8.1,11.5-12.4,18.5-12.4,18.5c-5.2,7.8-7.6,9.1-7.6,9.1c-1.6,1.1-3.1,1-3.1,1c-0.7,0.1-3-0.8-3-0.8c-1.7-0.7-3.6-2.4-3.6-2.4
	c-1.3-1.1-2.5-2.6-3.3-4.6c-1.3-1.9-0.8-6.2-0.8-6.2c0.3-2.5,1.4-5.7,3.5-9.8c2.6-4.9,8.3-13.2,8.3-13.2l0.1-0.1
	c-4-0.1-6.5-1.3-6.5-1.3c-0.5-0.1-0.3-0.7-0.3-0.7c-0.1-0.2,0.9-0.5,0.9-0.5c1.9-0.7,8.4-1.3,8.4-1.3c7.6-10.9,8.8-13,8.8-13
	c1.8-2.7,1.7-4.6,1.7-4.6c0-0.2-0.1-0.3-0.1-0.3c-0.1-0.5,0.5-0.6,0.5-0.6c0.3,0,1.4,0.5,1.4,0.5c5.4,2.4,6.4,6.8,6.4,6.8
	c0.5,2.7-1.9,5.6-1.9,5.6l-4,4.9c4.3,0.1,5.5,0.3,5.5,0.3c1.4,0.1,1.4,0.7,1.4,0.7C214,42.9,212.4,43.4,212.4,43.4z"/>
<path class="st0" d="M240.1,27.5l-6.3,8.9l-7.2,10.1c-3.2,4.4-6,9.1-6,9.1c-2.1,3.1-3.9,6.4-4.8,8.1c-2.3,4.3-3.2,8.3-3.2,8.3
	c-0.5,2.1-0.3,4.1,0.6,5.5c3.2,0.6,15.6-13.8,15.6-13.8l7.3-8.4c0.3-0.7,0.9-0.1,0.9-0.1c0.3,0.2,0,0.8,0,0.8
	c-13.5,20.6-16.4,23.6-16.4,23.6c-1.9,2.7-5,2.5-5,2.5c-1.3,0.2-3.9-1.5-3.9-1.5l-3.3-2.1c-2.6-2.1-2.8-6.7-2.8-6.7
	c-0.5-4.6,2.2-10.4,2.2-10.4c2.2-4.2,5.4-9.6,5.4-9.6c2.1-3.8,4.9-8.1,7.6-12.1c3-4.4,5.7-9,5.7-9c2.1-3.2,4-6.4,4.9-8.2
	c1.1-1.7,1.5-4.4,1.5-4.4c0.1-0.9,0.2-1.9,0.1-3.1c-0.3-0.7,0.1-1.1,0.1-1.1c0.3-0.6,0.9-0.5,0.9-0.5c2.9,0.5,5.8,4.9,5.8,4.9
	c2.2,3.3,1.7,6,1.7,6C241.3,26.1,240.1,27.5,240.1,27.5z"/>
<path class="st0" d="M254.8,73.3c-3.1,3.6-6.2,6.8-8.3,8.4c-1.3,0.9-3.1,0.9-3.1,0.9c-3.5-0.2-6.6-2.6-6.6-2.6
	c-2.9-2.1-4.1-3.4-4.1-3.4c-2.7-2.3-2.6-6.4-2.6-6.4c-0.2-6.4,3.9-13.1,3.9-13.1c1.3-2.2,7.3-12.7,20.3-17.8
	c0.3-0.1,1.1,0.5,1.1,0.5c3.9,2.6,5.8,6.8,5.8,6.8c0.2,0.2,0.3,0.5,0.3,0.5c0.3,0.1,0.7,0.7,0.7,0.7c0.8,0.8,0.2,2.4,0.2,2.4
	c-1.3,3.3-4.7,6.7-4.7,6.7c-5.7,6.3-9.9,5.8-9.9,5.8c-2.3-0.3-5-3.5-5-3.5c-2.3,2.7-4.1,6.5-4.1,6.5c-0.7,1.4-1.3,2.9-1.7,4.4
	c-0.2,0.9-0.5,1.9-0.6,3c-0.2,5.2,2.7,5.6,2.7,5.6c2.4,0.2,7.4-3.5,7.4-3.5c4.6-3.6,9.6-8.3,9.6-8.3c2.2-1.8,6.3-7,9-9.9
	c0.8-0.9,1.4-0.7,1.4-0.7s0.7,0.2,0,1.4C266.1,58.2,260.5,66.4,254.8,73.3z M243.5,58.4c0,0,1.7,2.1,6.2-0.7c0,0,4.1-2.7,8-9.1
	C257.6,48.6,248.3,51.5,243.5,58.4z"/>
</svg>
