<?xml version="1.0" encoding="utf-8"?>
<!-- Generator: Adobe Illustrator 19.2.1, SVG Export Plug-In . SVG Version: 6.00 Build 0)  -->
<svg version="1.1" id="Layer_1" xmlns="http://www.w3.org/2000/svg" xmlns:xlink="http://www.w3.org/1999/xlink" x="0px" y="0px"
	 viewBox="0 0 96.5 87.7" style="enable-background:new 0 0 96.5 87.7;" xml:space="preserve">
<style type="text/css">
	.st0{fill:#FFFFFF;}
</style>
<path class="st0" d="M90.4,26.5C69.4,51.7,68.4,62.7,68.4,62.7c-0.7,5.3,3,7.2,3,7.2l0.9,0.3c0.5,0.1,0.5,0.5,0.5,0.5
	c0.1,0.3-0.5,0.5-0.5,0.5c-9.5,0.2-10-9.5-10-9.5c-0.4-2.5,1.2-7.4,1.2-7.4c0.5-1.6,1.3-3.5,2.4-5.7c3.6-7.4,13.9-21.1,13.9-21.1
	l-0.2-0.1C60.6,49.1,54.9,57,54.9,57c-5.2,7.8-7.1,12.4-7.1,12.4c-0.5,0.9,0.1,1.7,0.1,1.7c0.3,0.4,0,0.7,0,0.7
	c-0.2,0.5-1.2,0.1-1.2,0.1C42,69.4,42,65.1,42,65.1c-0.4-1.6,2.4-6.9,2.4-6.9C55,38.2,64.6,25,64.6,25l-0.2-0.2
	c-26.7,28.3-31.5,35-31.5,35c-6.1,8.5-5.8,11.6-5.8,11.6c0,0.6,0.5,1.6,0.5,1.6c0.3,0.5-0.4,1-0.4,1c-0.5,0.5-1.4-0.3-1.4-0.3
	c-4.4-4.3-4.4-7.1-4.4-7.1C20.1,64.9,26.1,56,26.1,56c17.3-24.4,19.1-27.4,19.1-27.4c5-7.2,5.2-9.1,5.2-9.1c0.3-0.5-0.3-0.4-0.3-0.4
	C38.5,23.5,27.9,32,27.9,32C16,41.1,12.5,45.9,12.5,45.9c-0.1,0.4,1.6,0.5,1.6,0.5c0.7-0.1,0.7,0.5,0.7,0.5c0.2,0.3-0.5,0.5-0.5,0.5
	C10.8,49.1,8.7,47,8.7,47c-3.1-2.6-4.1-5.4-4.1-5.4c-0.5-0.5,0.9-1.5,0.9-1.5c5.9-4.7,13.1-9.8,13.1-9.8c5.3-4,11.6-7.6,16.6-10.1
	c8.2-4,12-4.5,12-4.5c2.4-0.4,4.3,1.4,4.3,1.4l1.7,1.6c1.9,1.8,1.2,5.2,1.2,5.2c-1.1,6.5-8.2,15.9-8.2,15.9c-4.3,5.9-5.4,7-5.4,7
	l0.2,0.3l18.8-21.6l6.2-7.1c0.9-1.3,2-1.3,2-1.3C68.7,17,70,18,70,18c3,2.6,4,3.6,4,3.6c1.4,1.3,0.1,3.2,0.1,3.2L57.8,49.4l0.2,0.2
	c18.4-22.8,24.5-29,24.5-29c1.2-2.2,2.6-1.4,2.6-1.4c2.9,1.8,5.3,4.3,5.3,4.3C92.3,24.6,90.4,26.5,90.4,26.5z"/>
</svg>
